Coordinates
version=1
nRows=49
nColumns=12
inDegrees=yes

Units are S.I. units (second, meters, Newtons, ...)
Angles are in degrees

endheader
time	SC_y	SC_z	SC_x	AC_y	AC_z	AC_x	GH_y	GH_z	GH_yy	EL_x	PS_y
       0.0              -43.74          9.028          48.41          69.36         -12.73          4.988          4.336           51.2          7.027          110.1          18.82
   0.01875              -43.74          9.032          48.41          69.36         -12.72          4.984          4.323          51.19          7.034          110.1          18.82
   0.03751              -43.74          9.036          48.42          69.35         -12.72           4.98          4.309          51.18          7.041          110.1          18.83
   0.05626              -43.74          9.041          48.42          69.35         -12.72          4.976          4.294          51.17          7.048          110.1          18.83
   0.07501              -43.74          9.046          48.43          69.34         -12.72          4.972          4.277          51.16          7.056          110.1          18.83
   0.09377              -43.74          9.051          48.44          69.34         -12.72          4.967           4.26          51.15          7.065          110.1          18.83
    0.1125              -43.74          9.057          48.44          69.33         -12.72          4.962          4.242          51.14          7.074          110.0          18.84
    0.1313              -43.74          9.063          48.45          69.32         -12.72          4.957          4.223          51.13          7.083          110.0          18.84
      0.15              -43.74           9.07          48.46          69.31         -12.71          4.951          4.202          51.12          7.094          110.0          18.85
    0.1688              -43.74          9.077          48.47          69.31         -12.71          4.945          4.179           51.1          7.105          110.0          18.85
    0.1875              -43.74          9.084          48.48           69.3         -12.71          4.938          4.155          51.09          7.117          110.0          18.85
    0.2063              -43.74          9.092          48.49          69.29         -12.71          4.931          4.129          51.07           7.13          110.0          18.86
     0.225              -43.74          9.101           48.5          69.28          -12.7          4.924          4.101          51.06          7.144          109.9          18.86
    0.2438              -43.74          9.111          48.51          69.27          -12.7          4.915          4.071          51.04          7.158          109.9          18.87
    0.2625              -43.74          9.121          48.52          69.25          -12.7          4.907          4.038          51.02          7.175          109.9          18.88
    0.2813              -43.74          9.132          48.54          69.24          -12.7          4.897          4.003           51.0          7.192          109.9          18.88
    0.3001              -43.74          9.144          48.55          69.23         -12.69          4.886          3.964          50.97          7.211          109.8          18.89
    0.3188              -43.74          9.157          48.57          69.21         -12.69          4.875          3.922          50.95          7.232          109.8           18.9
    0.3376              -43.73          9.171          48.58           69.2         -12.68          4.862          3.877          50.92          7.255          109.8          18.91
    0.3563              -43.73          9.187           48.6          69.18         -12.68          4.849          3.826          50.89           7.28          109.7          18.92
    0.3751              -43.73          9.204          48.62          69.16         -12.67          4.834          3.771          50.86          7.307          109.7          18.93
    0.3938              -43.73          9.223          48.65          69.14         -12.67          4.817          3.711          50.82          7.337          109.7          18.94
    0.4126              -43.73          9.244          48.67          69.11         -12.66          4.799          3.644          50.78           7.37          109.6          18.95
    0.4313              -43.73          9.268           48.7          69.08         -12.66          4.779           3.57          50.73          7.407          109.6          18.96
    0.4501              -43.73          9.293          48.73          69.05         -12.65          4.756          3.487          50.68          7.448          109.5          18.98
    0.4688              -43.73          9.322          48.77          69.02         -12.64          4.731          3.395          50.63          7.493          109.4           19.0
    0.4876              -43.72          9.354          48.81          68.98         -12.63          4.703          3.292          50.56          7.544          109.4          19.02
    0.5063              -43.72          9.391          48.86          68.94         -12.62          4.671          3.176          50.49          7.602          109.3          19.04
    0.5251              -43.72          9.432          48.91          68.89         -12.61          4.636          3.045          50.41          7.667          109.2          19.06
    0.5438              -43.71          9.478          48.96          68.84         -12.59          4.595          2.896          50.32           7.74          109.1          19.09
    0.5626              -43.71          9.531          49.03          68.78         -12.58          4.549          2.726          50.22          7.824          109.0          19.12
    0.5813              -43.71          9.592           49.1           68.7         -12.56          4.496          2.531           50.1          7.921          108.8          19.16
    0.6001               -43.7          9.663          49.19          68.62         -12.54          4.434          2.306          49.97          8.032          108.7           19.2
    0.6189               -43.7          9.744          49.29          68.53         -12.51          4.363          2.045          49.81          8.162          108.5          19.25
    0.6376              -43.69           9.84          49.41          68.42         -12.49           4.28          1.739          49.62          8.313          108.3          19.31
    0.6564              -43.68          9.953          49.55          68.28         -12.45          4.181          1.378           49.4          8.492          108.0          19.37
    0.6751              -43.68          10.09          49.72          68.13         -12.41          4.065         0.9498          49.14          8.704          107.7          19.45
    0.6939              -43.66          10.25          49.92          67.94         -12.37          3.925          0.436          48.83          8.958          107.3          19.55
    0.7126              -43.65          10.44          50.16          67.71         -12.31          3.755        -0.1855          48.45          9.266          106.9          19.67
    0.7314              -43.64          10.68          50.45          67.44         -12.24          3.548        -0.9447          47.99          9.642          106.3          19.81
    0.7501              -43.62          10.97          50.81          67.09         -12.15          3.293         -1.882          47.42          10.11          105.7          19.98
    0.7689              -43.59          11.34          51.27          66.67         -12.05          2.974          -3.05          46.71          10.68          104.8           20.2
    0.7876              -43.56           11.8          51.84          66.13         -11.91          2.573         -4.522          45.82          11.41          103.8          20.48
    0.8064              -43.53          12.38          52.56          65.45         -11.74          2.063         -6.394          44.68          12.34          102.4          20.83
    0.8251              -43.48          13.13          53.49          64.57         -11.52           1.41         -8.789          43.23          13.53          100.7          21.28
    0.8439              -43.42          14.09          54.68          63.45         -11.23          0.572         -11.86          41.36          15.05          98.53          21.85
    0.8626              -43.34          15.32           56.2          62.02         -10.87        -0.4982         -15.79          38.98          16.99          95.73          22.59
    0.8814              -43.24          16.87          58.11          60.21         -10.42         -1.844         -20.72          35.98          19.44           92.2          23.51
    0.9002              -43.11          18.75          60.44          58.02         -9.863         -3.484         -26.74          32.33          22.42           87.9          24.64
